<svg xmlns="http://www.w3.org/2000/svg" viewBox="0 0 32 32" width="32" height="32">
  <rect width="32" height="32" rx="7" fill="#0F172A"/>
  <path d="M22.4 15.6C22.4 19.1 19.5 22 16 22C12.5 22 9.6 19.1 9.6 15.6C9.6 12.1 12.5 9.2 16 9.2C18.3 9.2 20.4 10.5 21.5 12.4" fill="none" stroke="#FFFFFF" stroke-width="2.4" stroke-linecap="round" stroke-linejoin="round"/>
  <path d="M15.4 15.6H22.2" stroke="#FFFFFF" stroke-width="2.4" stroke-linecap="round" stroke-linejoin="round"/>
  <path d="M24 6.5C24 8.7 25.2 9.5 27 9.5C25.2 9.5 24 10.3 24 12.5C24 10.3 22.8 9.5 21 9.5C22.8 9.5 24 8.7 24 6.5Z" fill="#F59E0B"/>
</svg>
